# xmcd
#
# Track frame offsets: 
#        150
#        11552
#        28077
#        43170
#        59182
#        76327
#        94752
#        110055
#        125192
#        141490
#        154697
#        170135
#        184282
#        200882
#
# Disc length: 2888 seconds
#
# Revision: 0
# Processed by: cddbd v1.5.2PL0 Copyright (c) Steve Scherf et al.
# Submitted via: ExactAudioCopyFreeDBPlugin 1.0
#
DISCID=dc0b460e
DTITLE=Martina McBride - Greetings from the wild wild west
DYEAR=1900
DGENRE=Country
TTITLE0=The time has come
TTITLE1=True love never dies
TTITLE2=A woman konws
TTITLE3=Your cheatin' heart
TTITLE4=Goin' to work
TTITLE5=That's me
TTITLE6=She ain't seen nothing yet
TTITLE7=Independence day
TTITLE8=I hear you knockin'
TTITLE9=True blue fool
TTITLE10=Strangers
TTITLE11=Cheap whiskey
TTITLE12=Life #9
TTITLE13=My baby loves me
EXTD=
EXTT0=
EXTT1=
EXTT2=
EXTT3=
EXTT4=
EXTT5=
EXTT6=
EXTT7=
EXTT8=
EXTT9=
EXTT10=
EXTT11=
EXTT12=
EXTT13=
PLAYORDER=
